# xmcd
#
# Track frame offsets:
# 150
# 12555
# 24212
# 36662
# 49935
# 62255
# 70802
# 83237
# 100757
# 111982
#
# Disc length: 1608 seconds
#
#
# Revision: 0
# Processed by: cddbd v1.5.1PL0 Copyright (c) Steve Scherf et al.
# Submitted via: FreeRIP 2.70 
#
DISCID=7f06460a
DTITLE=Conway Twitty - Who Will Pray For Me
DYEAR=1973
DGENRE=Gospel
TTITLE0=Conway Twitty - Who Will Pray For Me
TTITLE1=Conway Twitty - Jesus Is A Soul Man
TTITLE2=Conway Twitty -In Loving Memories
TTITLE3=Conway Twitty - Suppertime
TTITLE4=Conway Twitty - Clinging To A Saving Hand
TTITLE5=Conway Twitty - The Big Man Above
TTITLE6=Conway Twitty - If We Want Love To Last
TTITLE7=Conway Twitty - The Third Man
TTITLE8=Conway Twitty - Lead us Back To Love
TTITLE9=Conway Twitty - Me and My Neighbor
EXTD=
EXTT0=
EXTT1=
EXTT2=
EXTT3=
EXTT4=
EXTT5=
EXTT6=
EXTT7=
EXTT8=
EXTT9=
PLAYORDER=
